<?xml version="1.0" encoding="utf-8"?>
<!-- Generator: Adobe Illustrator 22.0.0, SVG Export Plug-In . SVG Version: 6.00 Build 0)  -->
<svg version="1.1" id="Ebene_1" xmlns="http://www.w3.org/2000/svg" xmlns:xlink="http://www.w3.org/1999/xlink" x="0px" y="0px"
	 viewBox="0 0 604 371.6" style="enable-background:new 0 0 604 371.6;" xml:space="preserve">
<style type="text/css">
	.st0{fill:#249351;}
	.st1{fill:#2ECC71;}
	.st2{font-family:'Roboto-Black';}
	.st3{font-size:123.8328px;}
	.st4{font-family:'Roboto-Bold';}
	.st5{font-size:27.8624px;}
	.st6{letter-spacing:1;}
</style>
<g>
	<polygon class="st0" points="509.9,158.3 477.2,286.6 409,286.6 347.1,372.6 431.3,372.6 590.2,138.5 601.5,94 46.3,94 29.9,158.3 
		501.3,158.3 	"/>
</g>
<text transform="matrix(0.969 0 -0.2469 0.969 6.6852 251.0198)" class="st1 st2 st3">GARDEN</text>
<polygon class="st1" points="46.3,94 105.2,8 126.2,63 150.3,27 160.1,75 216,1 221.2,63 233.3,39 238.7,65 277.8,37 283.6,73 
	327.3,35 337.1,71 394,1 402.1,83 433.1,24 444.2,67 462.3,35 463.3,78 501.8,41 507.6,77 545.3,27 565.6,77 581,48 582.6,81 
	607,56 601.3,94 "/>
<text transform="matrix(0.969 0 -0.2469 0.969 3 279.5575)" class="st1 st4 st5 st6">Kleingartenverein Schnelsen</text>
</svg>
